<svg width="30" height="22"
     viewBox="0 0 30 22"
     fill="none"
     xmlns="http://www.w3.org/2000/svg">
    <path d="M26.6646 0H2.54037C1.20985 0 0.12793 1.07136 0.12793 2.38891V19.1111C0.12793 20.4286 1.20985 21.5 2.54037 21.5H26.6647C27.9951 21.5 29.077 20.4286 29.077 19.1111V2.38891C29.077 1.07136 27.9951 0 26.6646 0ZM2.54037 1.19443H26.6647C26.7535 1.19443 26.8319 1.22651 26.9152 1.24465C24.8267 3.13749 17.9013 9.41123 15.4777 11.5735C15.2881 11.7426 14.9824 11.9444 14.6025 11.9444C14.2226 11.9444 13.917 11.7426 13.7267 11.5729C11.3034 9.41101 4.37763 3.13693 2.28939 1.24476C2.37296 1.22662 2.45144 1.19443 2.54037 1.19443ZM1.33412 19.1111V2.38891C1.33412 2.27189 1.36975 2.16573 1.40163 2.05879C3.00017 3.50758 7.83241 7.88507 10.9657 10.7066C7.84259 13.3631 3.0091 17.9009 1.39785 19.4224C1.36941 19.3208 1.33412 19.2215 1.33412 19.1111ZM26.6646 20.3056H2.54037C2.44403 20.3056 2.35837 20.2723 2.26841 20.251C3.93338 18.6793 8.79762 14.1154 11.8658 11.5162C12.2658 11.8754 12.6312 12.203 12.9192 12.46C13.4163 12.9045 13.9982 13.1389 14.6025 13.1389C15.2068 13.1389 15.7887 12.9044 16.2852 12.4606C16.5733 12.2035 16.9389 11.8756 17.3391 11.5162C20.4075 14.1151 25.2711 18.6787 26.9366 20.251C26.8466 20.2723 26.7611 20.3056 26.6646 20.3056ZM27.8709 19.1111C27.8709 19.2214 27.8356 19.3208 27.8072 19.4224C26.1953 17.9002 21.3624 13.3628 18.2393 10.7066C21.3727 7.88513 26.2042 3.50803 27.8033 2.05868C27.8352 2.16562 27.8709 2.27183 27.8709 2.38885V19.1111Z" fill="black"/>
</svg>
