<svg height="496pt" viewBox="0 0 496 496" width="496pt" xmlns="http://www.w3.org/2000/svg"><path d="m8 167.988281h480c4.417969 0 8-3.582031 8-8s-3.582031-8-8-8h-11.488281c-37.5625-90.507812-125.222657-150.125-223.199219-151.800781h-.296875c-.496094-.054688-.996094-.078125-1.496094-.070312-2.0625-.1562505-4.128906-.1562505-6.191406 0-.75-.0195318-1.496094.015624-2.238281.101562h-.105469c-.097656 0-.183594 0-.28125 0-97.976563 1.664062-185.640625 61.269531-223.214844 151.769531h-11.488281c-4.417969 0-8 3.582031-8 8s3.582031 8 8 8zm309.023438-91.824219c-20.261719 2.289063-40.632813 3.542969-61.023438 3.753907v-63.066407c22.65625 4.136719 44.152344 25.710938 61.023438 59.3125zm-77.023438-59.3125v63.066407c-20.382812-.210938-40.738281-1.464844-60.992188-3.753907 16.792969-33.34375 38.207032-54.871093 60.992188-59.3125zm0 79.066407v56.070312h-86.398438c4.171876-20.730469 10.300782-41.019531 18.300782-60.59375 22.597656 2.78125 45.332031 4.292969 68.097656 4.523438zm16 0c22.761719-.230469 45.488281-1.742188 68.078125-4.53125 8 19.582031 14.136719 39.871093 18.320313 60.601562h-86.398438zm84.335938-6.851563c11.046874-1.78125 21.464843-3.878906 31.097656-6.277344 15.84375 20.941407 28.191406 44.308594 36.566406 69.199219h-49.320312c-4.167969-21.492187-10.308594-42.554687-18.34375-62.921875zm-6.59375-15.109375c-7.621094-16.742187-17.722657-32.238281-29.964844-45.96875 21.386718 9.652344 40.535156 23.652344 56.222656 41.105469-8.238281 1.839844-17.015625 3.46875-26.257812 4.863281zm-171.46875 0c-9.261719-1.394531-18.015626-3.015625-26.273438-4.863281 15.710938-17.488281 34.890625-31.511719 56.320312-41.175781-12.289062 13.738281-22.417968 29.261719-30.046874 46.039062zm-6.609376 15.109375c-8.03125 20.367188-14.171874 41.429688-18.34375 62.921875h-49.320312c8.378906-24.890625 20.734375-48.261719 36.585938-69.199219 9.613281 2.398438 20.03125 4.503907 31.078124 6.277344zm303.390626 62.921875h-34.191407c-8.335937-26.398437-20.773437-51.320312-36.863281-73.847656 4.640625-1.472656 9.011719-3.023437 13.113281-4.65625 24.675781 21.75 44.429688 48.515625 57.941407 78.503906zm-72.4375-90.207031c-2.949219 1-6.027344 1.96875-9.234376 2.902344-6.867187-8.136719-14.355468-15.730469-22.398437-22.710938 11.066406 5.730469 21.644531 12.355469 31.632813 19.808594zm-268 2.902344c-3.203126-.933594-6.277344-1.902344-9.234376-2.902344 10.007813-7.453125 20.601563-14.082031 31.679688-19.816406-8.054688 6.984375-15.558594 14.578125-22.445312 22.71875zm-23.695313 8.800781c4.09375 1.632813 8.464844 3.183594 13.109375 4.65625-16.097656 22.527344-28.550781 47.449219-36.894531 73.847656h-34.191407c13.523438-29.992187 33.289063-56.753906 57.976563-78.503906zm0 0"/><path d="m488 327.988281h-480c-4.417969 0-8 3.582031-8 8s3.582031 8 8 8h11.488281c37.5625 90.507813 125.222657 150.125 223.199219 151.800781h.296875c.496094.058594.996094.082032 1.496094.070313h.800781.472656c.796875.050781 1.542969.058594 2.285156.058594 1.015626 0 1.945313 0 2.546876-.058594.800781.03125 1.601562-.007813 2.398437-.109375h.078125.28125c97.957031-1.683594 185.597656-61.28125 223.167969-151.761719h11.488281c4.417969 0 8-3.582031 8-8s-3.582031-8-8-8zm-309.023438 91.824219c20.261719-2.289062 40.632813-3.542969 61.023438-3.753906v63.066406c-22.65625-4.136719-44.152344-25.710938-61.023438-59.3125zm77.023438 59.3125v-63.066406c20.382812.210937 40.738281 1.464844 60.992188 3.753906-16.792969 33.34375-38.214844 54.871094-60.992188 59.3125zm0-79.066406v-56.070313h86.398438c-4.171876 20.730469-10.300782 41.019531-18.300782 60.59375-22.597656-2.78125-45.332031-4.292969-68.097656-4.523437zm-16 0c-22.761719.230468-45.488281 1.742187-68.078125 4.53125-8-19.582032-14.136719-39.871094-18.320313-60.601563h86.398438zm-84.335938 6.851562c-11.046874 1.78125-21.464843 3.878906-31.097656 6.277344-15.84375-20.941406-28.191406-44.308594-36.566406-69.199219h49.335938c4.164062 21.492188 10.296874 42.554688 18.328124 62.921875zm6.59375 15.109375c7.617188 16.753907 17.722657 32.261719 29.964844 46-21.390625-9.660156-40.539062-23.667969-56.222656-41.136719 8.238281-1.839843 17.015625-3.46875 26.257812-4.863281zm171.46875 0c9.253907 1.394531 18.015626 3.015625 26.28125 4.863281-15.710937 17.488282-34.890624 31.515626-56.320312 41.183594 12.28125-13.742187 22.410156-29.265625 30.039062-46.046875zm6.609376-15.109375c8.03125-20.367187 14.171874-41.429687 18.34375-62.921875h49.320312c-8.378906 24.890625-20.734375 48.261719-36.585938 69.199219-9.613281-2.398438-20.03125-4.503906-31.078124-6.277344zm-303.390626-62.921875h34.191407c8.335937 26.398438 20.773437 51.320313 36.863281 73.847657-4.640625 1.472656-9.011719 3.023437-13.113281 4.65625-24.675781-21.75-44.429688-48.515626-57.941407-78.503907zm72.4375 90.207031c2.949219-.996093 6.027344-1.964843 9.234376-2.902343 6.882812 8.136719 14.382812 15.730469 22.4375 22.710937-11.078126-5.730468-21.667969-12.355468-31.671876-19.808594zm268-2.902343c3.203126.9375 6.277344 1.90625 9.234376 2.902343-10.007813 7.453126-20.601563 14.082032-31.679688 19.816407 8.054688-6.984375 15.558594-14.578125 22.445312-22.71875zm23.695313-8.800781c-4.09375-1.632813-8.464844-3.183594-13.109375-4.65625 16.097656-22.527344 28.550781-47.449219 36.894531-73.847657h34.191407c-13.523438 29.992188-33.289063 56.753907-57.976563 78.503907zm0 0"/><path d="m288.335938 205.691406-18.199219 60.695313-14.9375-29.972657c-1.503907-2.523437-4.222657-4.070312-7.160157-4.070312-2.933593 0-5.65625 1.546875-7.160156 4.070312l-15.015625 29.972657-18.199219-60.671875c-1.269531-4.230469-5.726562-6.632813-9.960937-5.367188-4.230469 1.269532-6.636719 5.726563-5.367187 9.960938l24 80c.941406 3.140625 3.707031 5.390625 6.976562 5.671875 3.277344.316406 6.402344-1.433594 7.847656-4.390625l16.839844-33.714844 16.800781 33.6875c1.359375 2.726562 4.152344 4.441406 7.199219 4.425781.230469.011719.457031.011719.6875 0 3.269531-.28125 6.035156-2.53125 6.976562-5.671875l24-80c1.269532-4.234375-1.136718-8.691406-5.367187-9.960937-4.234375-1.265625-8.691406 1.136719-9.960937 5.367187zm0 0"/><path d="m416.335938 205.691406-18.199219 60.695313-14.9375-29.972657c-1.503907-2.523437-4.222657-4.070312-7.160157-4.070312-2.933593 0-5.65625 1.546875-7.160156 4.070312l-15.015625 29.972657-18.199219-60.671875c-1.269531-4.230469-5.726562-6.632813-9.960937-5.367188-4.230469 1.269532-6.636719 5.726563-5.367187 9.960938l24 80c.941406 3.140625 3.707031 5.390625 6.976562 5.671875 3.273438.3125 6.402344-1.4375 7.847656-4.390625l16.839844-33.714844 16.800781 33.6875c1.359375 2.726562 4.152344 4.441406 7.199219 4.425781.230469.011719.457031.011719.6875 0 3.269531-.28125 6.035156-2.53125 6.976562-5.671875l24-80c1.269532-4.234375-1.136718-8.691406-5.367187-9.960937-4.234375-1.265625-8.691406 1.136719-9.960937 5.367187zm0 0"/><path d="m160.335938 205.691406-18.199219 60.695313-14.9375-29.972657c-1.503907-2.523437-4.222657-4.070312-7.160157-4.070312-2.933593 0-5.65625 1.546875-7.160156 4.070312l-15.015625 29.972657-18.199219-60.671875c-1.269531-4.230469-5.726562-6.632813-9.960937-5.367188-4.230469 1.269532-6.636719 5.726563-5.367187 9.960938l24 80c.941406 3.140625 3.707031 5.390625 6.976562 5.671875 3.277344.320312 6.40625-1.433594 7.847656-4.390625l16.839844-33.714844 16.839844 33.6875c1.355468 2.714844 4.128906 4.425781 7.160156 4.425781.230469.011719.457031.011719.6875 0 3.269531-.28125 6.035156-2.53125 6.976562-5.671875l24-80c1.269532-4.234375-1.136718-8.691406-5.367187-9.960937-4.234375-1.265625-8.691406 1.136719-9.960937 5.367187zm0 0"/></svg>